<svg width="346" height="93" viewBox="0 0 346 93" fill="none" xmlns="http://www.w3.org/2000/svg">
<path d="M70.4426 62.5591L62.6173 42.1582H43.1544V59.3068H28.5365C17.1061 59.3068 7.83986 68.573 7.83986 80.0034H60.0088L70.4426 62.5591Z" fill="#0147FF"/>
<path d="M62.6028 12.0734H10.4338L0 32.77L7.82535 53.171H27.2883V36.0223H38.6538C51.8804 36.0223 62.6028 25.3 62.6028 12.0734Z" fill="#0147FF"/>
<path d="M136.789 34.5188V53.8066C136.789 55.15 137.102 56.1336 137.727 56.7573C138.401 57.3331 139.507 57.6209 141.046 57.6209H145.737V66.1133H139.387C130.872 66.1133 126.615 61.9871 126.615 53.7346V34.5188H121.852V26.2423H126.615V16.3825H126.903C132.363 16.3825 136.789 20.7969 136.789 26.2423H145.737V34.5188H136.789Z" fill="#393939"/>
<path d="M147.628 46.0339C147.628 42.0036 148.422 38.4291 150.009 35.3104C151.645 32.1918 153.834 29.7928 156.576 28.1135C159.366 26.4342 162.469 25.5946 165.884 25.5946C168.867 25.5946 171.465 26.1943 173.677 27.3938C175.938 28.5933 177.742 30.1047 179.089 31.9279V26.2423H189.264V66.1133H179.089V60.2838C177.79 62.155 175.986 63.7143 173.677 64.9618C171.416 66.1613 168.795 66.7611 165.812 66.7611C162.445 66.7611 159.366 65.8974 156.576 64.1702C153.834 62.4429 151.645 60.0199 150.009 56.9013C148.422 53.7346 147.628 50.1121 147.628 46.0339ZM179.089 46.1778C179.089 43.7309 178.608 41.6437 177.646 39.9165C176.684 38.1412 175.385 36.7978 173.75 35.8862C172.114 34.9266 170.358 34.4468 168.482 34.4468C166.606 34.4468 164.874 34.9026 163.287 35.8142C161.699 36.7258 160.4 38.0693 159.39 39.8445C158.428 41.5718 157.947 43.6349 157.947 46.0339C157.947 48.4329 158.428 50.544 159.39 52.3672C160.4 54.1424 161.699 55.5098 163.287 56.4694C164.922 57.429 166.654 57.9088 168.482 57.9088C170.358 57.9088 172.114 57.453 173.75 56.5414C175.385 55.5818 176.684 54.2384 177.646 52.5111C178.608 50.7359 179.089 48.6248 179.089 46.1778Z" fill="#393939"/>
<path d="M255.017 66.7611C251.169 66.7611 247.705 65.9214 244.626 64.2421C241.548 62.5149 239.118 60.0919 237.339 56.9732C235.607 53.8545 234.741 50.2561 234.741 46.1778C234.741 42.0996 235.631 38.5011 237.411 35.3824C239.239 32.2637 241.716 29.8648 244.843 28.1855C247.97 26.4582 251.457 25.5946 255.306 25.5946C259.154 25.5946 262.642 26.4582 265.769 28.1855C268.896 29.8648 271.349 32.2637 273.129 35.3824C274.957 38.5011 275.871 42.0996 275.871 46.1778C275.871 50.2561 274.933 53.8545 273.057 56.9732C271.229 60.0919 268.727 62.5149 265.552 64.2421C262.426 65.9214 258.914 66.7611 255.017 66.7611ZM255.017 57.9808C256.845 57.9808 258.553 57.549 260.141 56.6853C261.776 55.7737 263.075 54.4303 264.037 52.6551C264.999 50.8798 265.48 48.7207 265.48 46.1778C265.48 42.3874 264.47 39.4847 262.45 37.4695C260.477 35.4064 258.048 34.3748 255.162 34.3748C252.275 34.3748 249.846 35.4064 247.874 37.4695C245.949 39.4847 244.987 42.3874 244.987 46.1778C244.987 49.9682 245.925 52.895 247.801 54.9581C249.726 56.9732 252.131 57.9808 255.017 57.9808Z" fill="#393939"/>
<path d="M304.304 46.0339C304.304 42.0036 305.097 38.4291 306.685 35.3104C308.32 32.1918 310.509 29.7928 313.251 28.1135C316.041 26.4342 319.144 25.5946 322.56 25.5946C325.542 25.5946 328.14 26.1943 330.353 27.3938C332.614 28.5933 334.418 30.1047 335.765 31.9279V26.2423H345.939V66.1133H335.765V60.2838C334.466 62.155 332.662 63.7143 330.353 64.9618C328.092 66.1613 325.47 66.7611 322.488 66.7611C319.12 66.7611 316.041 65.8974 313.251 64.1702C310.509 62.4429 308.32 60.0199 306.685 56.9013C305.097 53.7346 304.304 50.1121 304.304 46.0339ZM335.765 46.1778C335.765 43.7309 335.284 41.6437 334.322 39.9165C333.359 38.1412 332.061 36.7978 330.425 35.8862C328.789 34.9266 327.034 34.4468 325.157 34.4468C323.281 34.4468 321.55 34.9026 319.962 35.8142C318.375 36.7258 317.076 38.0693 316.066 39.8445C315.103 41.5718 314.622 43.6349 314.622 46.0339C314.622 48.4329 315.103 50.544 316.066 52.3672C317.076 54.1424 318.375 55.5098 319.962 56.4694C321.598 57.429 323.329 57.9088 325.157 57.9088C327.034 57.9088 328.789 57.453 330.425 56.5414C332.061 55.5818 333.359 54.2384 334.322 52.5111C335.284 50.7359 335.765 48.6248 335.765 46.1778Z" fill="#393939"/>
<path d="M290.607 66.1133H280.505V26.2423H290.607V66.1133Z" fill="#393939"/>
<path d="M302.775 36.7851V26.2423C297.113 26.2424 291.98 31.1385 291.98 36.7851H302.775Z" fill="#393939"/>
<path d="M102.392 66.7611C99.1213 66.7611 96.1869 66.1853 93.5892 65.0338C90.9915 63.8343 88.9229 62.227 87.3836 60.2119C85.8923 58.1967 85.0745 55.9657 84.9302 53.5187H95.1045C95.2969 55.0541 96.0426 56.3255 97.3414 57.3331C98.6884 58.3407 100.348 58.8444 102.32 58.8444C104.245 58.8444 105.736 58.4606 106.794 57.6929C107.901 56.9253 108.454 55.9417 108.454 54.7422C108.454 53.4467 107.78 52.4871 106.433 51.8634C105.135 51.1917 103.042 50.472 100.156 49.7043C97.173 48.9846 94.7197 48.241 92.7954 47.4733C90.9193 46.7056 89.2837 45.5301 87.8887 43.9468C86.5417 42.3635 85.8682 40.2284 85.8682 37.5415C85.8682 35.3345 86.4936 33.3193 87.7443 31.4961C89.0432 29.6729 90.8712 28.2335 93.2284 27.1779C95.6337 26.1224 98.4478 25.5946 101.671 25.5946C106.433 25.5946 110.234 26.7941 113.072 29.1931C115.91 31.5441 117.474 34.7347 117.762 38.765H108.093C107.949 37.1817 107.275 35.9342 106.073 35.0226C104.918 34.063 103.355 33.5832 101.382 33.5832C99.5543 33.5832 98.1352 33.9191 97.1249 34.5908C96.1628 35.2625 95.6818 36.1981 95.6818 37.3976C95.6818 38.741 96.3552 39.7726 97.7022 40.4923C99.0492 41.164 101.142 41.8597 103.98 42.5794C106.866 43.2991 109.248 44.0427 111.124 44.8104C113 45.5781 114.611 46.7776 115.958 48.4089C117.353 49.9922 118.075 52.1033 118.123 54.7422C118.123 57.0452 117.474 59.1083 116.175 60.9316C114.924 62.7548 113.096 64.1942 110.691 65.2497C108.334 66.2573 105.567 66.7611 102.392 66.7611Z" fill="#393939"/>
<path d="M209.463 65.1058L193.444 26.2423C200.252 26.2423 206.34 30.4717 208.699 36.8411L215.091 54.0945L221.782 36.284C224.051 30.2442 229.839 26.2423 236.306 26.2423L213.648 80.0034H202.969L209.463 65.1058Z" fill="#393939"/>
</svg>
