<svg width="500" height="500" viewBox="0 0 500 500" fill="none" xmlns="http://www.w3.org/2000/svg">
<rect width="500" height="500" fill="white"/>
<path d="M147.473 266.521L139.648 246.12H120.185V263.269H105.567C94.1363 263.269 84.8701 272.535 84.8701 283.965H137.039L147.473 266.521Z" fill="#0147FF"/>
<path d="M139.633 216.035H87.4641L77.0303 236.732L84.8556 257.133H104.319V239.984H115.684C128.911 239.984 139.633 229.262 139.633 216.035Z" fill="#0147FF"/>
<path d="M213.819 238.481V257.768C213.819 259.112 214.132 260.095 214.757 260.719C215.431 261.295 216.537 261.583 218.077 261.583H222.767V270.075H216.417C207.902 270.075 203.645 265.949 203.645 257.696V238.481H198.882V230.204H203.645V220.344H203.934C209.393 220.344 213.819 224.759 213.819 230.204H222.767V238.481H213.819Z" fill="#393939"/>
<path d="M224.658 249.996C224.658 245.965 225.452 242.391 227.04 239.272C228.675 236.154 230.864 233.755 233.606 232.075C236.396 230.396 239.499 229.556 242.915 229.556C245.897 229.556 248.495 230.156 250.708 231.356C252.969 232.555 254.773 234.066 256.12 235.89V230.204H266.294V270.075H256.12V264.246C254.821 266.117 253.017 267.676 250.708 268.924C248.447 270.123 245.825 270.723 242.842 270.723C239.475 270.723 236.396 269.859 233.606 268.132C230.864 266.405 228.675 263.982 227.04 260.863C225.452 257.696 224.658 254.074 224.658 249.996ZM256.12 250.14C256.12 247.693 255.638 245.606 254.676 243.878C253.714 242.103 252.415 240.76 250.78 239.848C249.144 238.888 247.388 238.409 245.512 238.409C243.636 238.409 241.904 238.864 240.317 239.776C238.729 240.688 237.431 242.031 236.42 243.806C235.458 245.534 234.977 247.597 234.977 249.996C234.977 252.395 235.458 254.506 236.42 256.329C237.431 258.104 238.729 259.472 240.317 260.431C241.952 261.391 243.684 261.871 245.512 261.871C247.388 261.871 249.144 261.415 250.78 260.503C252.415 259.544 253.714 258.2 254.676 256.473C255.638 254.698 256.12 252.587 256.12 250.14Z" fill="#393939"/>
<path d="M332.048 270.723C328.199 270.723 324.736 269.883 321.657 268.204C318.578 266.477 316.149 264.054 314.369 260.935C312.637 257.816 311.771 254.218 311.771 250.14C311.771 246.061 312.661 242.463 314.441 239.344C316.269 236.226 318.746 233.827 321.873 232.147C325 230.42 328.488 229.556 332.336 229.556C336.185 229.556 339.672 230.42 342.799 232.147C345.926 233.827 348.379 236.226 350.159 239.344C351.987 242.463 352.901 246.061 352.901 250.14C352.901 254.218 351.963 257.816 350.087 260.935C348.259 264.054 345.758 266.477 342.583 268.204C339.456 269.883 335.944 270.723 332.048 270.723ZM332.048 261.943C333.876 261.943 335.583 261.511 337.171 260.647C338.806 259.736 340.105 258.392 341.067 256.617C342.029 254.842 342.511 252.683 342.511 250.14C342.511 246.349 341.5 243.446 339.48 241.431C337.508 239.368 335.078 238.337 332.192 238.337C329.306 238.337 326.876 239.368 324.904 241.431C322.98 243.446 322.018 246.349 322.018 250.14C322.018 253.93 322.956 256.857 324.832 258.92C326.756 260.935 329.161 261.943 332.048 261.943Z" fill="#393939"/>
<path d="M381.334 249.996C381.334 245.965 382.128 242.391 383.715 239.272C385.351 236.154 387.54 233.755 390.282 232.075C393.072 230.396 396.175 229.556 399.59 229.556C402.573 229.556 405.17 230.156 407.383 231.356C409.644 232.555 411.448 234.066 412.795 235.89V230.204H422.969V270.075H412.795V264.246C411.496 266.117 409.692 267.676 407.383 268.924C405.122 270.123 402.5 270.723 399.518 270.723C396.15 270.723 393.072 269.859 390.282 268.132C387.54 266.405 385.351 263.982 383.715 260.863C382.128 257.696 381.334 254.074 381.334 249.996ZM412.795 250.14C412.795 247.693 412.314 245.606 411.352 243.878C410.39 242.103 409.091 240.76 407.455 239.848C405.82 238.888 404.064 238.409 402.188 238.409C400.312 238.409 398.58 238.864 396.992 239.776C395.405 240.688 394.106 242.031 393.096 243.806C392.134 245.534 391.653 247.597 391.653 249.996C391.653 252.395 392.134 254.506 393.096 256.329C394.106 258.104 395.405 259.472 396.992 260.431C398.628 261.391 400.36 261.871 402.188 261.871C404.064 261.871 405.82 261.415 407.455 260.503C409.091 259.544 410.39 258.2 411.352 256.473C412.314 254.698 412.795 252.587 412.795 250.14Z" fill="#393939"/>
<path d="M367.637 270.075H357.535V230.204H367.637V270.075Z" fill="#393939"/>
<path d="M379.805 240.747V230.204C374.144 230.204 369.01 235.1 369.01 240.747H379.805Z" fill="#393939"/>
<path d="M179.423 270.723C176.152 270.723 173.217 270.147 170.619 268.996C168.022 267.796 165.953 266.189 164.414 264.174C162.923 262.159 162.105 259.927 161.96 257.481H172.135C172.327 259.016 173.073 260.287 174.372 261.295C175.719 262.302 177.378 262.806 179.351 262.806C181.275 262.806 182.766 262.422 183.824 261.655C184.931 260.887 185.484 259.903 185.484 258.704C185.484 257.409 184.811 256.449 183.464 255.825C182.165 255.153 180.072 254.434 177.186 253.666C174.203 252.946 171.75 252.203 169.826 251.435C167.95 250.667 166.314 249.492 164.919 247.909C163.572 246.325 162.899 244.19 162.899 241.503C162.899 239.296 163.524 237.281 164.775 235.458C166.073 233.635 167.901 232.195 170.259 231.14C172.664 230.084 175.478 229.556 178.701 229.556C183.464 229.556 187.264 230.756 190.102 233.155C192.94 235.506 194.504 238.697 194.792 242.727H185.123C184.979 241.143 184.305 239.896 183.103 238.984C181.948 238.025 180.385 237.545 178.413 237.545C176.585 237.545 175.165 237.881 174.155 238.553C173.193 239.224 172.712 240.16 172.712 241.359C172.712 242.703 173.386 243.734 174.732 244.454C176.079 245.126 178.172 245.821 181.01 246.541C183.897 247.261 186.278 248.005 188.154 248.772C190.03 249.54 191.642 250.739 192.989 252.371C194.384 253.954 195.105 256.065 195.153 258.704C195.153 261.007 194.504 263.07 193.205 264.893C191.954 266.717 190.126 268.156 187.721 269.212C185.364 270.219 182.598 270.723 179.423 270.723Z" fill="#393939"/>
<path d="M286.493 269.068L270.474 230.204C277.282 230.204 283.37 234.434 285.73 240.803L292.122 258.056L298.812 240.246C301.081 234.206 306.869 230.204 313.336 230.204L290.679 283.965H279.999L286.493 269.068Z" fill="#393939"/>
</svg>
