<svg width="142" height="35" viewBox="0 0 142 35" fill="none" xmlns="http://www.w3.org/2000/svg">
<path d="M28.0966 9.82608V20.276C28.0966 21.0039 28.266 21.5368 28.6049 21.8747C28.9698 22.1867 29.5692 22.3426 30.4032 22.3426H32.9444V26.9437H29.504C24.8909 26.9437 22.5843 24.7082 22.5843 20.237V9.82608H20.004V5.34195H22.5843V0H22.7407C25.6987 0 28.0966 2.39168 28.0966 5.34195H32.9444V9.82608H28.0966Z" fill="#383838"/>
<path d="M33.9692 16.0649C33.9692 13.8813 34.3993 11.9447 35.2594 10.255C36.1455 8.56532 37.3314 7.26558 38.817 6.35576C40.3287 5.44593 42.0097 4.99102 43.8602 4.99102C45.4761 4.99102 46.8835 5.31596 48.0825 5.96583C49.3074 6.61571 50.2848 7.43455 51.0146 8.42235V5.34195H56.5269V26.9437H51.0146V23.7853C50.3109 24.7991 49.3335 25.644 48.0825 26.3198C46.8575 26.9697 45.437 27.2947 43.8211 27.2947C41.9967 27.2947 40.3287 26.8267 38.817 25.8909C37.3314 24.9551 36.1455 23.6424 35.2594 21.9527C34.3993 20.237 33.9692 18.2744 33.9692 16.0649ZM51.0146 16.1428C51.0146 14.8171 50.7539 13.6863 50.2327 12.7505C49.7114 11.7887 49.0077 11.0608 48.1215 10.5669C47.2354 10.047 46.2841 9.78708 45.2676 9.78708C44.2512 9.78708 43.3129 10.034 42.4528 10.5279C41.5927 11.0218 40.889 11.7497 40.3417 12.7115C39.8204 13.6473 39.5598 14.7651 39.5598 16.0649C39.5598 17.3646 39.8204 18.5084 40.3417 19.4962C40.889 20.458 41.5927 21.1988 42.4528 21.7187C43.339 22.2386 44.2772 22.4986 45.2676 22.4986C46.2841 22.4986 47.2354 22.2516 48.1215 21.7577C49.0077 21.2378 49.7114 20.51 50.2327 19.5742C50.7539 18.6124 51.0146 17.4686 51.0146 16.1428Z" fill="#383838"/>
<path d="M92.1517 27.2947C90.0667 27.2947 88.1901 26.8397 86.5221 25.9299C84.854 24.9941 83.5378 23.6814 82.5735 21.9917C81.6352 20.302 81.1661 18.3524 81.1661 16.1428C81.1661 13.9333 81.6482 11.9837 82.6126 10.294C83.603 8.60432 84.9452 7.30457 86.6393 6.39475C88.3334 5.45893 90.223 4.99102 92.3081 4.99102C94.3931 4.99102 96.2827 5.45893 97.9768 6.39475C99.6709 7.30457 101 8.60432 101.964 10.294C102.955 11.9837 103.45 13.9333 103.45 16.1428C103.45 18.3524 102.942 20.302 101.925 21.9917C100.935 23.6814 99.5797 24.9941 97.8595 25.9299C96.1654 26.8397 94.2628 27.2947 92.1517 27.2947ZM92.1517 22.5376C93.1421 22.5376 94.0673 22.3036 94.9274 21.8357C95.8136 21.3418 96.5173 20.614 97.0385 19.6522C97.5598 18.6903 97.8204 17.5206 97.8204 16.1428C97.8204 14.0892 97.2731 12.5166 96.1785 11.4248C95.1099 10.307 93.7937 9.74809 92.2299 9.74809C90.6661 9.74809 89.3499 10.307 88.2813 11.4248C87.2388 12.5166 86.7175 14.0892 86.7175 16.1428C86.7175 18.1964 87.2258 19.7821 88.2422 20.8999C89.2847 21.9917 90.5879 22.5376 92.1517 22.5376Z" fill="#383838"/>
<path d="M118.855 16.0649C118.855 13.8813 119.285 11.9447 120.145 10.255C121.031 8.56532 122.217 7.26558 123.702 6.35576C125.214 5.44593 126.895 4.99102 128.746 4.99102C130.362 4.99102 131.769 5.31596 132.968 5.96583C134.193 6.61571 135.17 7.43455 135.9 8.42235V5.34195H141.412V26.9437H135.9V23.7853C135.196 24.7991 134.219 25.644 132.968 26.3198C131.743 26.9697 130.322 27.2947 128.706 27.2947C126.882 27.2947 125.214 26.8267 123.702 25.8909C122.217 24.9551 121.031 23.6424 120.145 21.9527C119.285 20.237 118.855 18.2744 118.855 16.0649ZM135.9 16.1428C135.9 14.8171 135.639 13.6863 135.118 12.7505C134.597 11.7887 133.893 11.0608 133.007 10.5669C132.121 10.047 131.169 9.78708 130.153 9.78708C129.137 9.78708 128.198 10.034 127.338 10.5279C126.478 11.0218 125.774 11.7497 125.227 12.7115C124.706 13.6473 124.445 14.7651 124.445 16.0649C124.445 17.3646 124.706 18.5084 125.227 19.4962C125.774 20.458 126.478 21.1988 127.338 21.7187C128.224 22.2386 129.163 22.4986 130.153 22.4986C131.169 22.4986 132.121 22.2516 133.007 21.7577C133.893 21.2378 134.597 20.51 135.118 19.5742C135.639 18.6124 135.9 17.4686 135.9 16.1428Z" fill="#383838"/>
<path d="M111.434 26.9437H105.961V5.34195H111.434V26.9437Z" fill="#383838"/>
<path d="M118.026 11.054V5.34195C114.959 5.34201 112.178 7.99466 112.178 11.054H118.026Z" fill="#383838"/>
<path d="M9.46093 27.2947C7.68864 27.2947 6.09879 26.9827 4.69137 26.3588C3.28396 25.709 2.16324 24.8381 1.32922 23.7464C0.521264 22.6546 0.0781896 21.4458 0 20.1201H5.51236C5.61661 20.9519 6.02059 21.6408 6.7243 22.1867C7.45406 22.7326 8.35325 23.0055 9.42183 23.0055C10.4644 23.0055 11.2723 22.7975 11.8457 22.3816C12.4452 21.9657 12.7449 21.4328 12.7449 20.7829C12.7449 20.0811 12.38 19.5612 11.6502 19.2232C10.9465 18.8593 9.81279 18.4694 8.24899 18.0535C6.63308 17.6635 5.30386 17.2606 4.26133 16.8447C3.24487 16.4288 2.35872 15.7919 1.60289 14.9341C0.873117 14.0763 0.508236 12.9195 0.508236 11.4638C0.508236 10.268 0.847052 9.17621 1.52469 8.18841C2.2284 7.2006 3.2188 6.42075 4.4959 5.84886C5.79906 5.27698 7.32375 4.99103 9.06998 4.99103C11.6502 4.99103 13.7092 5.64091 15.247 6.94065C16.7847 8.2144 17.6317 9.94306 17.7881 12.1266H12.5494C12.4712 11.2688 12.1063 10.5929 11.4548 10.099C10.8293 9.57913 9.98219 9.31918 8.9136 9.31918C7.9232 9.31918 7.15434 9.50115 6.60701 9.86508C6.08575 10.229 5.82512 10.7359 5.82512 11.3858C5.82512 12.1136 6.19 12.6725 6.91977 13.0625C7.64954 13.4264 8.78329 13.8033 10.321 14.1932C11.8848 14.5832 13.1749 14.9861 14.1914 15.402C15.2079 15.8179 16.081 16.4678 16.8107 17.3516C17.5666 18.2094 17.9575 19.3532 17.9836 20.7829C17.9836 22.0307 17.6317 23.1485 16.928 24.1363C16.2504 25.1241 15.26 25.9039 13.9568 26.4758C12.6797 27.0217 11.1811 27.2947 9.46093 27.2947Z" fill="#383838"/>
<path d="M67.4708 26.3978L58.7917 5.34195C62.4803 5.34195 65.7785 7.63341 67.057 11.0843L70.5202 20.432L74.1451 10.7825C75.3744 7.51014 78.5104 5.34195 82.014 5.34195L69.7384 34.4692H63.9522L67.4708 26.3978Z" fill="#383838"/>
</svg>
